<svg version="1.1" xmlns="http://www.w3.org/2000/svg" xmlns:xlink="http://www.w3.org/1999/xlink" width="50" height="107.60182" viewBox="0,0,50,107.60182"><defs><linearGradient x1="240" y1="72.86841" x2="240" y2="209.62376" gradientUnits="userSpaceOnUse" id="color-1"><stop offset="0" stop-color="#e6e6e6"/><stop offset="1" stop-color="#e6e6e6" stop-opacity="0"/></linearGradient><radialGradient cx="240" cy="102.88401" r="23.27586" gradientUnits="userSpaceOnUse" id="color-2"><stop offset="0" stop-color="#e7e7e7" stop-opacity="0"/><stop offset="1" stop-color="#e7e7e7"/></radialGradient></defs><g transform="translate(-215,-79.60814)"><g data-paper-data="{&quot;isPaintingLayer&quot;:true}" fill-rule="nonzero" stroke="none" stroke-width="0" stroke-linecap="butt" stroke-linejoin="miter" stroke-miterlimit="10" stroke-dasharray="" stroke-dashoffset="0" style="mix-blend-mode: normal"><path d="M265,107.72299c0,18.77356 -11.19288,79.48698 -25,79.48698c-13.80712,0 -25,-60.71343 -25,-79.48698c0,-18.77356 11.19288,-27.09597 25,-27.09597c13.80712,0 25,8.32242 25,27.09597z" fill="url(#color-1)"/><path d="M263.27586,102.88401c0,12.85491 -10.42096,23.27586 -23.27586,23.27586c-12.85491,0 -23.27586,-10.42095 -23.27586,-23.27586c0,-12.85491 10.42095,-23.27587 23.27586,-23.27587c12.85491,0 23.27586,10.42096 23.27586,23.27587z" fill="url(#color-2)"/></g></g></svg>