<svg version="1.1" xmlns="http://www.w3.org/2000/svg" xmlns:xlink="http://www.w3.org/1999/xlink" width="492.244" height="360.93093" viewBox="0,0,492.244,360.93093"><g transform="translate(4.5,0.93093)"><g data-paper-data="{&quot;isPaintingLayer&quot;:true}" fill-rule="nonzero" stroke="none" stroke-width="0" stroke-linecap="butt" stroke-linejoin="miter" stroke-miterlimit="10" stroke-dasharray="" stroke-dashoffset="0" style="mix-blend-mode: normal"><path d="M441.95195,357.92793v-358.85886h36.03604v358.85886z" fill="#a6672b"/><path d="M387.8979,351.93243v-49.56006h70.57057v49.56006z" fill="#a6672b"/><path d="M389.5,351.25075v-38h45v38z" fill="#42ff64"/><path d="M-4.5,357.5v-107.24925h122v107.24925z" fill="#a6672b"/><path d="M109.5,264.25075v-41h195v41z" fill="#a6672b"/><path d="M-0.5,327.25075v-41h88v41z" fill="#ffffff"/><path d="M342.5,244.25075v-107h50v107z" fill="#a6672b"/><path d="M442.5,308.25075h-54v-122h54z" fill="#a6672b"/><path d="M204.5,43.25075v-43h245v43z" fill="#a6672b"/><path d="M-1.5,265.25075v-103h113v103z" fill="#a6672b"/><path d="M264.5,116.25075v-51h163v51z" fill="#ffffff"/><path d="M91.5,189.25075v-73h64v73z" fill="#a6672b"/><path d="M9.5,68.25075v-35h107.51652v35z" fill="#a6672b"/><path d="M8.99999,182.5v-131h27v131z" fill="#a6672b"/><path d="M105.77538,116.07004l-37.18242,1.38584l-0.36834,-43.02441l37.18242,-1.38584z" fill="#ffba42"/><path d="M112.99999,126.5v-114h44v114z" fill="#a6672b"/><path d="M217,355.5v-95h87v95z" fill="#a6672b"/><path d="M203,159.5v-140h54v140z" fill="#a6672b"/><path d="M202,173.5v-37h149v37z" fill="#a6672b"/><path d="M106.99999,359.5v-51h88v51z" fill="#a6672b"/><path d="M168.99999,347.5v-34h84v34z" fill="#a6672b"/><path d="M434.744,360v-139.5h53v139.5z" fill="#ffffff"/><path d="M363.244,332.43243v-90h26.5v90z" fill="#a6672b"/><path d="M381.744,288.93243v23h20v-23z" fill="#a6672b"/><path d="M217.622,238.93243v-39h88v39z" fill="#a6672b"/><path d="M217.75,189v-18h44.5v18z" fill="#a6672b"/><path d="M389.372,313.43243v-28h50v28z" fill="#ffffff"/><path d="M58,138.53454v-8h9.5v8z" fill="#ffffff"/><path d="M104,116.03454v-49h10v49z" fill="#ffffff"/><path d="M52,78.53454v-12h57v12z" fill="#ffffff"/></g></g></svg>