<svg version="1.1" xmlns="http://www.w3.org/2000/svg" xmlns:xlink="http://www.w3.org/1999/xlink" width="469.12274" height="352.29877" viewBox="0,0,469.12274,352.29877"><g transform="translate(-13.59103,0.54877)"><g data-paper-data="{&quot;isPaintingLayer&quot;:true}" fill-rule="nonzero" stroke-linejoin="miter" stroke-miterlimit="10" stroke-dasharray="" stroke-dashoffset="0" style="mix-blend-mode: normal"><path d="M195.5,220.00001v-80h89v80z" fill="#a6672b" stroke="none" stroke-width="0" stroke-linecap="butt"/><path d="M462.57107,40.57108c-7.07107,7.07107 -14.14214,0 -14.14214,0l0.52407,0.24944c-4.3451,-3.12089 -8.61096,-7.05984 -10.59814,-12.27497c-1.18143,-3.10054 -1.70419,-6.41345 -2.55628,-9.62018c0,0 -2.42536,-9.70143 7.27607,-12.12678c9.70143,-2.42536 12.12678,7.27607 12.12678,7.27607c0.83786,3.7025 1.16018,8.2307 4.84558,10.10485l2.52407,2.24944c0,0 7.07107,7.07107 0,14.14214z" fill="#a6672b" stroke="none" stroke-width="0.5" stroke-linecap="butt"/><path d="M479.57107,33.57108c-7.07107,7.07107 -14.14214,0 -14.14214,0l-1.26882,-1.33765c-1.38563,-1.03847 -3.0441,-1.78871 -4.15689,-3.1154c-1.37637,-1.64093 -2.07263,-3.74908 -3.15232,-5.59876c-0.85478,-1.46438 -2.10353,-2.73683 -2.65019,-4.34189c-0.87954,-2.58244 -1.0431,-5.35559 -1.56465,-8.03339c0,0 -1.64399,-9.86394 8.21995,-11.50793c9.86394,-1.64399 11.50793,8.21995 11.50793,8.21995c0.37288,3.39741 1.20469,7.34052 4.47595,8.91057l2.73118,2.66235c0,0 7.07107,7.07107 0,14.14214z" fill="#a6672b" stroke="none" stroke-width="0.5" stroke-linecap="butt"/><path d="M441.54185,350.14015h-1.88237c-5.20191,-0.07582 -10.2969,-1.25937 -15.47647,-1.66183c-9.51455,-0.73928 -19.12545,0.48719 -28.67086,0.09995c-0.33056,-0.0134 -0.66109,-0.02685 -0.99159,-0.04034c-0.61723,0.03703 -1.25701,0.05621 -1.92014,0.05621c-1.6049,0 -3.07298,-0.11238 -4.4159,-0.31798c-31.18261,-1.30283 -62.16577,-2.77402 -93.46704,-2.77402c0,0 -18.82364,0 -18.82364,-15.46001c0,-1.2037 0.11411,-2.31367 0.32455,-3.33723l-5.97165,0.24523c0,-0.51341 0.00365,-1.02871 0.01014,-1.54558l-0.01014,-0.00042c0,0 0,-0.13543 0.01544,-0.38095c0.09401,-6.20674 0.56765,-12.63078 0.02093,-18.7564c-0.36982,-4.14364 -1.60586,-8.21947 -1.88236,-12.368c-0.08781,-1.31749 0.00034,-33.93074 -0.0201,-34.33016c-0.88495,-17.29087 -1.89863,-34.33004 -1.89863,-51.66052c0,0 0,-15.46001 18.82365,-15.46001c0.59656,0 1.1742,0.01552 1.73354,0.04559c-0.09435,-1.59793 0.11164,-3.37268 0.71085,-5.3412c4.56541,-14.99842 22.82702,-11.24881 22.82702,-11.24881c12.42684,2.59151 24.7443,2.88918 37.44938,4.31173c20.41821,2.28616 40.57356,5.00179 60.83609,7.80379c10.44287,1.4441 21.4974,1.91163 30.97875,5.78566c4.75603,1.94328 10.29276,3.35966 13.67022,6.72713c13.61586,13.57554 7.69223,32.55724 8.71704,48.41757c1.4478,22.40612 6.24309,44.35479 9.25246,66.59936c1.04656,5.30694 2.00276,10.66334 2.06108,16.03923v3.092c0,0 0,15.46001 -18.82364,15.46001c-2.70792,0 -5.02627,-0.31994 -7.01111,-0.86777c-3.40591,0.86777 -6.16544,0.86777 -6.16544,0.86777zM428.78287,317.78997c1.76535,0.12751 3.50579,0.49469 5.24658,0.82618c-1.67737,-12.1607 -3.82803,-24.24143 -5.69118,-36.35476c-5.82396,0.72119 -10.28695,-1.13023 -13.38895,-3.30708c-0.43856,-0.00606 -0.87705,-0.01246 -1.31549,-0.0192c0.21591,10.17445 0.34387,20.37572 -0.36382,30.42367c-0.19572,2.77904 -0.57701,5.55081 -0.94254,8.32249c6.80872,-0.05055 13.77441,-0.08495 16.45539,0.1087zM375.69547,307.4375c0.71167,-9.7618 0.9319,-19.62267 0.81959,-29.50435c-9.05558,-0.25798 -18.11792,-0.45874 -27.20909,-0.455c-7.11396,0.00292 -31.37201,0.32175 -37.32132,-1.17682c-2.35609,-0.59348 -4.21173,-1.96773 -6.00705,-3.43608c-0.19248,6.3753 -0.43942,12.75107 -0.00237,19.11226c0.28501,4.14815 1.53055,8.22332 1.88236,12.368c0.28653,3.37571 0.31938,6.82426 0.27026,10.28308c22.243,0.15261 44.43409,0.67406 66.6522,1.45412c0.34882,-2.87974 0.70502,-5.75963 0.91539,-8.6452zM327.74842,247.27705c1.47987,-0.42147 3.06007,-0.63901 4.61631,-0.71894c5.63608,-0.28946 11.29417,-0.00223 16.94128,0c8.67252,0.00342 17.3154,0.18792 25.94967,0.42835c-0.42453,-6.59235 -0.92384,-13.15733 -1.45011,-19.6714c-0.35829,-4.43483 -0.30818,-8.93043 -1.19599,-13.30794c-22.89984,-2.2078 -46.2011,-3.31951 -68.61568,-7.60485c0.1354,0.92975 0.13539,1.50584 0.13539,1.50584c0,12.70574 0.57456,25.23524 1.22024,37.83741c10.0131,-5.75254 19.40618,-0.4946 22.3989,1.53153zM424.60057,248.10411l0.00793,0.00493c-0.0103,-4.87122 -0.00793,-16.15782 -0.00793,-18.55694c0,-2.06133 -0.08858,-4.12396 0,-6.184c0.03071,-0.71387 1.87448,-2.35776 1.20693,-1.8999c-2.58455,1.77271 -4.72352,-1.18334 -7.6657,-1.65597c-2.19766,-0.35304 -4.42931,-0.51292 -6.66774,-0.63663c1.26559,9.5353 1.65389,19.23339 1.77558,28.83467c3.77885,0.05909 7.56192,0.09384 11.35096,0.09384z" fill="#a6672b" stroke="none" stroke-width="0.5" stroke-linecap="butt"/><path d="M289.69844,160.63326l-18.95966,-21.94383l49.56278,-42.82266l18.95966,21.94383z" fill="#a6672b" stroke="none" stroke-width="0" stroke-linecap="butt"/><path d="M195.5,148.74907v-112h89v112z" fill="#a6672b" stroke="none" stroke-width="0" stroke-linecap="butt"/><path d="M21.5,195.74907v-28h182v28z" fill="#a6672b" stroke="none" stroke-width="0" stroke-linecap="butt"/><path d="M20.59103,187.25v-168h31v168z" fill="#a6672b" stroke="none" stroke-width="0" stroke-linecap="butt"/><path d="M269.59103,46.25l138,1" fill="none" stroke="#a6672b" stroke-width="35" stroke-linecap="round"/><path d="M286.59103,151.25h130l16,42" fill="none" stroke="#a6672b" stroke-width="35" stroke-linecap="round"/><path d="M403.59103,57.25l26,9" fill="none" stroke="#a6672b" stroke-width="35" stroke-linecap="round"/><path d="M437.59103,71.25l-32,19" fill="none" stroke="#a6672b" stroke-width="35" stroke-linecap="round"/><path d="M397.59103,86.25l-80,25" fill="none" stroke="#a6672b" stroke-width="35" stroke-linecap="round"/><path d="M123.59103,40.25l-55,14l-27,15" fill="none" stroke="#a6672b" stroke-width="35" stroke-linecap="round"/><path d="M127.59103,46.25l17,48l-34,36" fill="none" stroke="#a6672b" stroke-width="35" stroke-linecap="round"/><path d="M103.59103,130.25l-54,4" fill="none" stroke="#a6672b" stroke-width="35" stroke-linecap="round"/><path d="M57.59103,137.25l-25,-1" fill="none" stroke="#a6672b" stroke-width="35" stroke-linecap="round"/><path d="M141.59103,109.25l61,38" fill="none" stroke="#a6672b" stroke-width="35" stroke-linecap="round"/><path d="M114.59103,43.25l89,15" fill="none" stroke="#a6672b" stroke-width="35" stroke-linecap="round"/><path d="M34.59103,334.25v-91v-55" fill="none" stroke="#a6672b" stroke-width="35" stroke-linecap="round"/><path d="M106.59103,331.25l-75.5,-75.5" fill="none" stroke="#a6672b" stroke-width="35" stroke-linecap="round"/><path d="M110.59103,319.25l50,-50v62" fill="none" stroke="#a6672b" stroke-width="35" stroke-linecap="round"/><path d="M159.09103,307.75l62.5,-62.5l57.5,57.5" fill="none" stroke="#a6672b" stroke-width="35" stroke-linecap="round"/><path d="M204.59103,322.25h31" fill="none" stroke="#a6672b" stroke-width="35" stroke-linecap="round"/><path d="M242.59103,320.25h37" fill="none" stroke="#a6672b" stroke-width="35" stroke-linecap="round"/><path d="M201.59103,328.25h-34" fill="none" stroke="#a6672b" stroke-width="35" stroke-linecap="round"/><path d="M230.59103,202.25v54" fill="none" stroke="#a6672b" stroke-width="35" stroke-linecap="round"/></g></g></svg>